<svg width="59" height="60" viewBox="0 0 59 60" fill="none" xmlns="http://www.w3.org/2000/svg">
<path d="M24.0618 0.453903C13.9016 2.15294 5.67832 8.81313 1.83852 18.4296C0.241431 22.3714 -0.132355 25.0219 0.0375476 30.3568C0.207451 35.8957 0.819101 38.1723 3.2657 42.8617C5.2026 46.5316 7.68318 49.5898 10.7075 52.0364C13.7997 54.517 14.0375 54.619 16.4162 54.2791C17.5375 54.1432 23.4842 54.0073 29.6007 54.0073C39.2851 53.9733 40.7463 54.0413 40.9162 54.483C41.0861 54.8908 41.222 54.9248 41.5958 54.619C41.9016 54.3811 42.5812 54.3131 43.3968 54.449C44.5181 54.619 44.9259 54.483 46.3531 53.3957C50.7706 50.1335 54.0327 46.1918 56.3094 41.3665C58.1783 37.4927 58.756 35.1481 58.9599 30.4927C59.8434 11.6335 43.1249 -2.77425 24.0618 0.453903ZM36.1589 3.00245C45.7754 5.21119 52.5376 11.7694 55.9356 22.2015C56.3774 23.4588 56.5133 25.1918 56.5133 28.9976C56.5133 34.4005 56.2075 35.8957 54.4405 39.9393L53.591 41.8423L51.824 41.6044C50.8385 41.5024 49.7172 41.4005 49.3094 41.4005C48.0521 41.4005 48.3919 40.4151 50.091 38.9199C53.1492 36.2355 54.5084 32.8374 54.2366 28.6238C54.0327 25.3617 53.1832 23.8665 51.5861 23.9685C50.091 24.0364 47.9162 25.5995 46.591 27.5704C44.5861 30.5607 44.3822 35.6918 46.1492 39.0898C46.523 39.8034 46.8288 40.551 46.8288 40.7209C46.8288 41.0947 45.5376 41.1626 43.6346 40.8228L42.3094 40.619L42.5133 34.2306C42.6832 28.1481 42.6492 27.7743 42.0036 26.9588C41.29 26.0413 29.6346 15.9151 29.2948 15.9151C28.989 15.9151 17.3676 26.3811 16.5861 27.3665C16.0084 28.1141 15.9065 28.5558 16.0764 29.5073C16.2123 30.1529 16.3822 32.9393 16.4842 35.6578L16.6201 40.619L15.023 40.8568C11.8288 41.2646 11.6249 41.0947 12.8822 38.6141C13.324 37.7646 13.6638 36.2694 13.7657 34.8083C14.1055 30.1869 12.2366 26.449 8.66862 24.5461C6.86765 23.6287 6.7657 23.5947 6.12007 24.1723C4.3191 25.8034 4.21716 31.3423 5.95017 34.9782C6.90163 36.983 9.48415 40.0413 10.1977 40.0413C10.3676 40.0413 10.4696 40.3131 10.4016 40.619C10.3337 41.0607 9.68803 41.2986 7.8191 41.5704L5.33852 41.9442L4.89677 41.0947C3.70745 38.784 2.62007 34.9102 2.31425 32.0898C1.56667 24.9199 3.46959 18.1238 7.75114 12.483C10.0618 9.3908 13.0861 7.01216 17.0958 5.04128C23.2123 2.05099 29.1929 1.43934 36.1589 3.00245ZM38.6055 27.3665L39.8628 28.4539L36.4308 28.4879C34.5618 28.4879 30.0084 28.5898 26.3385 28.7257C21.0715 28.8957 19.6443 28.8277 19.6443 28.5219C19.6443 28.284 20.4259 27.3665 21.4113 26.517C22.3968 25.6335 24.5715 23.6626 26.2366 22.1335L29.2609 19.3811L33.3385 22.8131C35.5473 24.716 37.9259 26.7549 38.6055 27.3665ZM7.78512 28.5558C7.78512 28.7937 7.92104 29.7112 8.05697 30.5947C8.32881 32.3617 8.09095 32.6335 7.00357 31.6481C6.39192 31.1044 6.12007 28.8617 6.62978 28.3859C7.00357 27.9782 7.75114 28.1141 7.78512 28.5558ZM28.4793 35.6238V40.3811H27.4599H26.4405V35.6238V30.8665H27.4599H28.4793V35.6238ZM32.2172 35.6238V40.3811H31.1977H30.1783V35.8617C30.1783 33.3471 30.2803 31.2063 30.4162 31.1044C30.5181 30.9685 30.9939 30.8665 31.4356 30.8665H32.2172V35.6238ZM24.3337 35.8617L24.4356 40.3811H21.6832H18.9647V35.7937V31.1723L21.6152 31.2743L24.2317 31.3762L24.3337 35.8617ZM40.0327 35.7937V40.3811H37.3143H34.5958V35.7937V31.2063H37.3143H40.0327V35.7937ZM42.5812 43.7791C49.3094 44.1869 51.5861 44.4248 51.5861 44.8325C51.5861 44.9685 51.2463 45.4442 50.8385 45.818C50.1929 46.4296 49.7851 46.5316 48.3579 46.3617C44.3822 45.8859 20.3579 45.75 14.5812 46.1238C8.7026 46.5316 8.66862 46.5316 7.88706 45.784C7.44531 45.3762 7.17347 44.9345 7.24143 44.7986C7.37735 44.5607 13.188 43.8471 16.756 43.6432C21.1735 43.4054 37.4162 43.4733 42.5812 43.7791ZM45.6055 49.1481L47.3045 49.3859L45.9453 50.2355L44.6201 51.119L29.1249 51.051L13.6298 50.983L12.5084 50.2015L11.421 49.3859L12.9162 49.1821C14.921 48.9102 43.5327 48.8762 45.6055 49.1481Z" fill="#10B981"/>
<path d="M29.1589 6.7063C29.1589 6.94417 28.6152 7.65776 27.9696 8.30339C26.8822 9.32281 26.8482 9.42475 27.4598 9.62863C27.8336 9.73057 28.3773 10.2743 28.6831 10.784L29.2608 11.7694L30.5861 10.3762C31.5375 9.35679 31.7754 8.91504 31.4696 8.71116C31.2317 8.57523 30.9259 8.43931 30.7899 8.43931C30.688 8.43931 30.2802 7.9296 29.8725 7.31795C29.4987 6.74028 29.1589 6.43446 29.1589 6.7063Z" fill="#10B981"/>
<path d="M17.2657 10.3761C15.8385 10.8179 15.057 11.4635 14.5133 12.6528C13.3919 15.1674 14.989 17.614 17.7074 17.614C21.2074 17.614 22.8725 13.7402 20.3919 11.4295C19.4404 10.5461 18.1492 10.1043 17.2657 10.3761ZM19.1006 13.6043C19.6443 14.4878 18.2171 15.915 17.3337 15.3713C16.688 14.9635 16.4162 14.114 16.722 13.3325C16.9938 12.6528 18.6249 12.8567 19.1006 13.6043Z" fill="#10B981"/>
<path d="M38.5036 11.2257C36.7706 12.7548 37.0764 16.1189 39.0473 17.1043C39.557 17.3761 40.6104 17.614 41.324 17.614C42.4453 17.614 42.8531 17.4101 43.7366 16.4247C45.2318 14.7257 45.1978 13.1965 43.6347 11.6334C42.6492 10.648 42.2415 10.4781 40.9502 10.4781C39.8288 10.4781 39.1492 10.682 38.5036 11.2257ZM41.9017 13.0606C42.5813 13.7402 42.4453 14.8616 41.6638 15.3713C40.3046 16.1868 38.9453 13.8761 40.2366 12.9587C41.0182 12.381 41.222 12.415 41.9017 13.0606Z" fill="#10B981"/>
<path d="M9.3482 19.2452C8.90645 19.7549 8.87247 19.9248 9.28024 20.4685C9.68801 21.0122 9.85791 21.0462 10.2997 20.6724C10.9453 20.1627 10.9453 19.517 10.3676 19.0073C9.99383 18.7355 9.75597 18.7695 9.3482 19.2452Z" fill="#10B981"/>
<path d="M48.5958 19.347C48.188 19.9587 48.222 20.1626 48.6297 20.5703C49.0375 21.0121 49.1734 20.9781 49.6492 20.5024C50.1249 20.0606 50.1249 19.8228 49.7851 19.3131C49.2754 18.4635 49.1395 18.4635 48.5958 19.347Z" fill="#10B981"/>
<path d="M20.1881 56.6917C20.358 56.8616 21.5473 57.4053 22.8725 57.8811C25.7269 58.9684 30.1444 59.3422 32.8968 58.7646C35.1735 58.2888 38.3337 57.0655 38.3337 56.6578C38.3337 56.4879 34.2221 56.3519 29.091 56.3519C23.2463 56.3519 19.9502 56.4539 20.1881 56.6917Z" fill="#10B981"/>
</svg>
